# xmcd CD database file
#
# Track frame offsets:
#	150
#	22357
#	44477
#	77087
#	94082
#	122227
#	139887
#	154250
#	178135
#	201867
#	222075
#
# Disc length: 3301 seconds
#
# Revision: 0
# Processed by: cddbd v1.5.1PL0 Copyright (c) Steve Scherf et al.
# Submitted via: CDex 1.51
#
DISCID=a40ce30b
DTITLE=Rony Verbiest - nouvelles
DYEAR=2004
DGENRE=Jazz
TTITLE0=Serenity
TTITLE1=If I should lose you
TTITLE2=Nouvelles
TTITLE3=Waltz à Jo
TTITLE4=Moon and Sand
TTITLE5=As time goes by
TTITLE6=Stefie`s song
TTITLE7=Tango Cattleya
TTITLE8=Gemellagio
TTITLE9=Baantjer, Circle of Smiles
TTITLE10=Moon River
EXTD=YEAR: 2004
EXTT0=
EXTT1=
EXTT2=
EXTT3=
EXTT4=
EXTT5=
EXTT6=
EXTT7=
EXTT8=
EXTT9=
EXTT10=
PLAYORDER=
